<?xml version="1.0" encoding="UTF-8" standalone="no"?>
<!-- Created with Inkscape (http://www.inkscape.org/) -->

<svg
   xmlns:dc="http://purl.org/dc/elements/1.1/"
   xmlns:cc="http://creativecommons.org/ns#"
   xmlns:rdf="http://www.w3.org/1999/02/22-rdf-syntax-ns#"
   xmlns:svg="http://www.w3.org/2000/svg"
   xmlns="http://www.w3.org/2000/svg"
   xmlns:sodipodi="http://sodipodi.sourceforge.net/DTD/sodipodi-0.dtd"
   xmlns:inkscape="http://www.inkscape.org/namespaces/inkscape"
   id="svg2"
   version="1.1"
   inkscape:version="0.48.5 r10040"
   width="548.50987"
   height="160.37625"
   xml:space="preserve"
   sodipodi:docname="intel security.pdf"><metadata
     id="metadata8"><rdf:RDF><cc:Work
         rdf:about=""><dc:format>image/svg+xml</dc:format><dc:type
           rdf:resource="http://purl.org/dc/dcmitype/StillImage" /><dc:title></dc:title></cc:Work></rdf:RDF></metadata><defs
     id="defs6" /><sodipodi:namedview
     pagecolor="#ffffff"
     bordercolor="#666666"
     borderopacity="1"
     objecttolerance="10"
     gridtolerance="10"
     guidetolerance="10"
     inkscape:pageopacity="0"
     inkscape:pageshadow="2"
     inkscape:window-width="1366"
     inkscape:window-height="705"
     id="namedview4"
     showgrid="false"
     inkscape:zoom="1.732606"
     inkscape:cx="224.24857"
     inkscape:cy="43.739523"
     inkscape:window-x="-8"
     inkscape:window-y="-8"
     inkscape:window-maximized="1"
     inkscape:current-layer="g10" /><g
     id="g10"
     inkscape:groupmode="layer"
     inkscape:label="intel security"
     transform="matrix(1.25,0,0,-1.25,-20.603875,817.945)"><g
       id="g12"
       transform="matrix(1.010604,0,0,1,-4.813848,0)"><path
         d="m 202.387,617.016 c -8.489,43.965 -88.551,46.746 -140.16,13.254 l 0,-3.699 c 51.543,28.265 124.675,28.086 131.332,-12.411 2.242,-13.414 -4.821,-27.367 -17.485,-35.394 l 0,-10.504 c 15.242,5.941 30.828,25.176 26.313,48.754 m -93.848,-76.969 c -35.617,-3.5 -72.726,2.012 -77.922,31.699 -2.578,14.618 3.703,30.133 11.988,39.758 l 0,5.153 C 27.664,602.688 19.551,585.016 24.234,564.149 c 5.977,-26.778 37.825,-41.934 86.446,-36.887 19.25,1.973 44.445,8.582 61.929,18.836 l 0,14.566 c -15.89,-10.109 -42.171,-18.464 -64.07,-20.617 z"
         style="fill:#1e71b7;fill-opacity:1;fill-rule:nonzero;stroke:none"
         id="path14"
         inkscape:connector-curvature="0" /><path
         d="m 169.758,623.371 -9.34,0 0,-44.379 c 0,-5.21 2.344,-9.746 9.34,-10.46"
         style="fill:#1e71b7;fill-opacity:1;fill-rule:nonzero;stroke:none"
         id="path16"
         inkscape:connector-curvature="0" /><path
         d="m 58.527,607.153 -9.336,0 0,-28.985 c 0,-5.215 2.344,-9.746 9.336,-10.465"
         style="fill:#1e71b7;fill-opacity:1;fill-rule:nonzero;stroke:none"
         id="path18"
         inkscape:connector-curvature="0" /><path
         d="m 49.191,622.024 9.336,0 0,-9.441 -9.336,0 0,9.441 z"
         style="fill:#1e71b7;fill-opacity:1;fill-rule:nonzero;stroke:none"
         id="path20"
         inkscape:connector-curvature="0" /><path
         d="m 114.48,568.172 c -7.57,0 -10.761,5.61 -10.761,11.149 l 0,38.496 9.234,0 0,-10.664 6.996,0 0,-7.985 -6.996,0 0,-19.258 c 0,-2.261 1.02,-3.503 3.227,-3.503 l 3.769,0 0,-8.235 -5.469,0"
         style="fill:#1e71b7;fill-opacity:1;fill-rule:nonzero;stroke:none"
         id="path22"
         inkscape:connector-curvature="0" /><path
         d="m 139.027,599.657 c -3.156,0 -5.597,-1.747 -6.617,-4.102 -0.613,-1.418 -0.816,-2.5 -0.918,-4.242 l 14.297,0 c -0.207,4.262 -2.008,8.344 -6.762,8.344 m -7.535,-15.071 c 0,-5.051 2.988,-8.773 8.215,-8.773 4.109,0 6.148,1.222 8.523,3.719 l 5.704,-5.84 c -3.664,-3.848 -7.5,-6.188 -14.293,-6.188 -8.86,0 -17.348,5.16 -17.348,20.196 0,12.855 7.398,20.117 17.145,20.117 9.878,0 15.55,-8.504 15.55,-19.668 l 0,-3.563 -23.496,0"
         style="fill:#1e71b7;fill-opacity:1;fill-rule:nonzero;stroke:none"
         id="path24"
         inkscape:connector-curvature="0" /><path
         d="m 83.688,599.168 c 2.714,0 3.835,-1.418 3.835,-3.738 l 0,-27.313 9.27,0 0,27.348 c 0,5.559 -2.785,11.688 -10.898,11.688 l -19.118,0 0,-39.036 9.235,0 0,31.055"
         style="fill:#1e71b7;fill-opacity:1;fill-rule:nonzero;stroke:none"
         id="path26"
         inkscape:connector-curvature="0" /><text
         transform="matrix(0.96161827,0,0,-1,175.04452,616.88452)"
         id="text28"><tspan
           style="font-size:9.08710957px;font-variant:normal;font-weight:normal;writing-mode:lr-tb;fill:#1e71b7;fill-opacity:1;fill-rule:nonzero;stroke:none;font-family:Arial;-inkscape-font-specification:ArialMT"
           x="0"
           y="0"
           id="tspan30">®</tspan></text>
<path
         d="m 453.664,606.391 c 0.121,-0.746 0.063,-1.524 0.301,-2.254 l 0,-7.098 c -0.281,-1.242 -0.262,-2.519 -0.426,-3.777 -1.254,-9.562 -4.562,-18.109 -11.191,-25 -3.172,-3.293 -6.825,-5.867 -10.907,-7.762 0,0.797 -0.003,1.594 -0.003,2.391 0.167,0.094 0.335,0.195 0.503,0.281 7.907,4.117 13.454,10.516 16.739,19.113 1.847,4.821 2.8,9.852 3.105,15.02 0.149,2.512 0.168,5.027 -0.074,7.535 0.684,0.469 1.086,1.332 1.953,1.551 z"
         style="fill:#6f7b82;fill-opacity:1;fill-rule:nonzero;stroke:none"
         id="path32"
         inkscape:connector-curvature="0" /><path
         d="m 215.734,572.325 c 0.606,0.867 1.172,1.671 1.758,2.511 1.86,-1.57 3.875,-2.758 6.153,-3.367 3.41,-0.914 6.816,-1.082 10.109,0.449 3.902,1.813 4.656,5.75 3.723,8.977 -0.469,1.613 -1.602,2.648 -2.973,3.418 -1.836,1.031 -3.883,1.375 -5.844,2 -1.941,0.613 -3.949,1.008 -5.828,1.824 -2.637,1.141 -4.832,2.828 -5.699,5.848 -1.465,5.097 0.5,10.484 6.23,12.398 5.434,1.813 10.754,1.281 15.797,-1.629 0.371,-0.215 0.762,-0.426 1.059,-0.832 -0.473,-0.777 -0.942,-1.558 -1.446,-2.387 -0.925,0.512 -1.8,1.063 -2.753,1.442 -3.985,1.57 -8.012,1.91 -12.032,0.262 -2.5,-1.028 -3.883,-3.028 -3.945,-5.907 -0.059,-2.629 1.391,-4.914 3.832,-6.004 2.293,-1.023 4.738,-1.535 7.113,-2.296 1.891,-0.606 3.825,-1.082 5.594,-2.075 3.664,-2.054 4.992,-5.191 4.59,-9.386 -0.457,-4.786 -3.109,-7.809 -7.371,-9.067 -6.293,-1.855 -12.199,-0.816 -17.516,3.324 -0.172,0.133 -0.324,0.289 -0.551,0.497 z"
         style="fill:#1e71b7;fill-opacity:1;fill-rule:nonzero;stroke:none"
         id="path36"
         inkscape:connector-curvature="0" /><path
         d="m 249.238,581.817 c -0.164,-5.344 2.403,-10.18 7.895,-10.91 3.183,-0.422 6.195,0.039 8.89,2.152 0.465,-0.789 0.915,-1.551 1.387,-2.352 -1.562,-1.246 -3.234,-2.121 -5.105,-2.554 -2.469,-0.571 -4.942,-0.536 -7.387,0.101 -3.488,0.906 -6.086,3.059 -7.473,6.559 -2.011,5.097 -2.05,10.265 0.231,15.273 1.918,4.211 5.285,6.274 9.687,6.512 1.785,0.094 3.535,-0.066 5.2,-0.824 3.199,-1.465 4.843,-4.192 5.527,-7.66 0.406,-2.063 0.426,-4.141 0.035,-6.297 -6.289,0 -12.562,0 -18.887,0 z m 16.075,2.718 c 0.097,0.973 0.007,1.891 -0.102,2.813 -0.383,3.258 -2.168,5.492 -4.988,6.141 -1.715,0.394 -3.426,0.289 -5.102,-0.258 -3.543,-1.149 -5.769,-4.949 -5.785,-8.696 5.301,0 10.602,0 15.977,0 z"
         style="fill:#1e71b7;fill-opacity:1;fill-rule:nonzero;stroke:none"
         id="path38"
         inkscape:connector-curvature="0" /><path
         d="m 372.895,595.93 c 1.007,0 1.964,-0.016 2.918,0.008 0.429,0.012 0.5,-0.297 0.613,-0.598 2.304,-6.117 4.605,-12.23 6.91,-18.348 0.586,-1.562 1.176,-3.125 1.832,-4.871 0.391,1.02 0.727,1.887 1.051,2.754 2.574,6.813 5.148,13.625 7.699,20.446 0.184,0.492 0.418,0.644 0.891,0.621 0.836,-0.035 1.671,-0.008 2.468,-0.008 0.2,-0.223 0.047,-0.379 -0.007,-0.524 -4.305,-11.007 -8.61,-22.011 -12.93,-33.011 -0.453,-1.16 -0.977,-2.289 -1.688,-3.317 -0.945,-1.371 -2.183,-2.211 -3.8,-2.429 -1.168,-0.157 -2.329,-0.172 -3.512,0.043 l 0,2.679 c 0.91,0.106 1.793,-0.004 2.668,0.149 1.305,0.222 2.238,0.957 2.851,2.16 1.039,2.043 1.786,4.219 2.649,6.34 0.14,0.343 -0.016,0.582 -0.117,0.847 -3.407,8.684 -6.817,17.36 -10.219,26.043 -0.113,0.289 -0.289,0.571 -0.277,1.016 z"
         style="fill:#1e71b7;fill-opacity:1;fill-rule:nonzero;stroke:none"
         id="path40"
         inkscape:connector-curvature="0" /><path
         d="m 320.191,595.825 c 0.008,-0.075 0.028,-0.149 0.028,-0.223 0,-8.91 0,-17.817 0,-26.727 0,-0.097 -0.02,-0.195 -0.031,-0.332 -0.641,-0.121 -1.286,-0.105 -1.915,-0.023 -0.722,0.097 -1.089,0.601 -1.105,1.43 -0.016,0.921 -0.004,1.847 -0.004,2.984 -0.527,-0.824 -0.937,-1.484 -1.449,-2.067 -2.277,-2.566 -5.164,-3.281 -8.352,-3.058 -2.054,0.144 -3.933,0.769 -5.468,2.305 -1.641,1.644 -2.34,3.742 -2.668,6.031 -0.157,1.07 -0.161,2.152 -0.164,3.234 0,5.211 0,10.418 0,15.629 l 0,0.871 3.085,0 c 0.157,-0.32 0.09,-0.629 0.09,-0.922 0.012,-5.687 0.012,-11.375 0.035,-17.062 0.004,-1.004 0.204,-1.996 0.504,-2.957 0.836,-2.684 2.661,-4.102 5.352,-4.168 4.945,-0.117 8.109,2.808 8.754,8.062 0.23,1.899 0.265,3.809 0.265,5.719 0,3.496 -0.003,6.996 0.004,10.492 0.004,0.285 -0.117,0.61 0.141,0.856 0.961,-0.149 1.934,-0.024 2.898,-0.074 z"
         style="fill:#1e71b7;fill-opacity:1;fill-rule:nonzero;stroke:none"
         id="path42"
         inkscape:connector-curvature="0" /><path
         d="m 431.438,562.891 c 0,-0.797 0.003,-1.594 0.003,-2.391 -1.203,0.293 -2.23,1 -3.289,1.61 -2.949,1.691 -5.625,3.804 -8.004,6.293 -2.343,2.449 -4.343,5.199 -5.964,8.246 -2.618,4.922 -4.157,10.222 -4.965,15.769 -0.27,1.832 -0.391,3.684 -0.504,5.539 -0.152,2.543 -0.02,5.067 0.172,7.594 0.051,0.703 0.226,1.125 1.008,1.313 3.988,0.957 8.003,1.726 12.066,2.277 4.348,0.59 8.707,0.726 13.07,0.539 4.024,-0.172 8.016,-0.754 11.977,-1.512 1.992,-0.383 3.976,-0.812 5.933,-1.347 0.243,-0.067 0.684,0.078 0.723,-0.43 -0.867,-0.219 -1.269,-1.082 -1.953,-1.551 -2.008,0.551 -4.047,0.942 -6.086,1.328 -4.012,0.758 -8.062,1.168 -12.133,1.414 -2.172,0.133 -4.34,-0.062 -6.512,-0.152 -0.804,-0.031 -1.621,-0.051 -2.421,-0.156 -2.098,-0.27 -4.196,-0.547 -6.289,-0.867 -2.309,-0.348 -4.59,-0.848 -6.86,-1.395 -0.25,-0.059 -0.5,-0.137 -0.504,-0.523 -0.008,-0.473 -0.097,-0.946 -0.113,-1.422 -0.125,-3.825 0.074,-7.629 0.699,-11.399 0.75,-4.551 2.028,-8.922 4.074,-13.023 3.028,-6.078 7.368,-10.84 12.997,-14.281 0.917,-0.563 1.785,-1.266 2.875,-1.473 z"
         style="fill:#b2bbc1;fill-opacity:1;fill-rule:nonzero;stroke:none"
         id="path44"
         inkscape:connector-curvature="0" /><path
         d="m 293.676,594.106 c -0.473,-0.801 -0.914,-1.547 -1.371,-2.324 -1.254,0.839 -2.532,1.496 -3.977,1.703 -1.988,0.281 -3.961,0.238 -5.879,-0.422 -2.367,-0.817 -4.07,-2.469 -4.972,-4.883 -1.45,-3.867 -1.504,-7.824 -0.157,-11.723 1.133,-3.281 3.532,-5.039 6.766,-5.535 2.875,-0.441 5.621,-0.047 8.121,1.633 0.055,0.039 0.133,0.039 0.234,0.066 0.422,-0.75 0.844,-1.5 1.297,-2.3 -1.468,-1.133 -3.07,-1.805 -4.789,-2.192 -2.722,-0.617 -5.418,-0.469 -8.051,0.477 -3.57,1.277 -5.859,3.929 -6.957,7.652 -1.203,4.074 -1.16,8.207 0.254,12.219 1.778,5.058 5.418,7.617 10.434,8.09 2.234,0.211 4.441,-0.02 6.555,-0.879 0.898,-0.363 1.726,-0.848 2.492,-1.582 z"
         style="fill:#1e71b7;fill-opacity:1;fill-rule:nonzero;stroke:none"
         id="path46"
         inkscape:connector-curvature="0" /><path
         d="m 359.535,593.153 -4.586,0 0,2.765 4.688,0 0,7.063 3.183,0 0,-7.051 6.875,0 0,-2.738 -6.711,0 c -0.234,-0.317 -0.168,-0.578 -0.168,-0.825 -0.003,-5.281 -0.003,-10.566 -0.003,-15.851 0,-0.805 0.082,-1.602 0.269,-2.387 0.336,-1.414 1.195,-2.246 2.508,-2.605 0.957,-0.262 1.93,-0.336 2.914,-0.328 0.375,0.004 0.754,0 1.176,0 l 0,-2.719 c -2.664,-0.27 -5.325,-0.434 -7.664,1.34 -1.438,1.086 -1.946,2.746 -2.207,4.5 -0.133,0.894 -0.164,1.8 -0.164,2.707 0.007,5.058 0.007,10.117 0,15.172 0,0.296 0.07,0.605 -0.11,0.957 z"
         style="fill:#1e71b7;fill-opacity:1;fill-rule:nonzero;stroke:none"
         id="path48"
         inkscape:connector-curvature="0" /><path
         d="m 341.566,593.305 c -1.054,0 -2.035,0.098 -2.996,-0.016 -4.226,-0.484 -6.605,-2.836 -7.457,-7.254 -0.289,-1.511 -0.425,-3.031 -0.425,-4.57 -0.004,-4.125 -0.004,-8.254 -0.004,-12.379 0,-0.172 -0.016,-0.344 -0.024,-0.562 l -3.101,0 0,27.363 c 0.75,0.066 1.507,0.145 2.246,-0.082 0.66,-0.199 0.812,-0.789 0.816,-1.434 0.008,-1.027 0.004,-2.054 0.004,-3.082 0.207,-0.015 0.23,0.133 0.281,0.231 1.629,3.066 4.231,4.453 7.449,4.742 0.922,0.082 1.86,0.102 2.786,-0.094 0.23,-0.047 0.425,-0.086 0.425,-0.39 -0.003,-0.774 0,-1.543 0,-2.473 z"
         style="fill:#1e71b7;fill-opacity:1;fill-rule:nonzero;stroke:none"
         id="path50"
         inkscape:connector-curvature="0" /><path
         d="m 349.762,595.828 c 0.015,-0.25 0.043,-0.5 0.043,-0.75 0,-8.601 0,-17.203 0,-25.804 l 0,-0.766 -3.043,0 c -0.164,0.227 -0.114,0.461 -0.114,0.684 0,8.675 0,17.351 0,26.031 0,0.219 -0.062,0.453 0.082,0.656 1.012,-0.015 2.02,-0.035 3.032,-0.051 z"
         style="fill:#1e71b7;fill-opacity:1;fill-rule:nonzero;stroke:none"
         id="path52"
         inkscape:connector-curvature="0" /><path
         d="m 350.02,606.614 0,-4.219 -3.563,0 0,4.219 3.563,0 z"
         style="fill:#1e71b7;fill-opacity:1;fill-rule:nonzero;stroke:none"
         id="path54"
         inkscape:connector-curvature="0" /><path
         d="m 349.762,595.828 c -1.008,0.016 -2.02,0.036 -3.028,0.051 1.012,0.149 2.024,0.254 3.028,-0.051 z"
         style="fill:#80b8e2;fill-opacity:1;fill-rule:nonzero;stroke:none"
         id="path58"
         inkscape:connector-curvature="0" /><path
         d="m 320.191,595.825 c -0.964,0.05 -1.937,-0.075 -2.898,0.074 0.969,0.105 1.937,0.238 2.898,-0.074 z"
         style="fill:#80b8e2;fill-opacity:1;fill-rule:nonzero;stroke:none"
         id="path60"
         inkscape:connector-curvature="0" /><path
         d="m 414.523,602.367 c 11.211,-1.195 22.391,-1.195 33.614,0 0.14,-1.417 0.109,-2.773 0.109,-4.128 -0.004,-3.891 -0.433,-7.723 -1.457,-11.465 -1.312,-4.824 -3.371,-9.246 -6.625,-12.961 -2.34,-2.668 -4.965,-4.973 -8.105,-6.567 -0.528,-0.265 -0.938,-0.289 -1.461,-0.007 -5.332,2.843 -9.313,7.121 -12.121,12.636 -2.266,4.446 -3.43,9.227 -3.868,14.231 -0.226,2.586 -0.214,5.176 -0.125,7.765 0.004,0.145 0.024,0.289 0.039,0.496 z m 9.282,-3.843 c -0.953,-6.239 -1.903,-12.434 -2.856,-18.657 l 4.352,0 c 0.484,3.317 0.969,6.622 1.449,9.93 0.047,0.004 0.094,0.012 0.141,0.02 0.695,-3.313 1.386,-6.629 2.078,-9.922 l 4.972,0 c -0.007,0.09 0,0.14 -0.011,0.187 -1.805,6.02 -3.614,12.039 -5.407,18.067 -0.093,0.308 -0.242,0.379 -0.511,0.379 -1.364,-0.008 -2.727,-0.004 -4.207,-0.004 z m 17.777,-18.641 c 0.109,0.469 -0.047,0.879 -0.105,1.297 -0.766,5.613 -1.539,11.23 -2.297,16.848 -0.051,0.39 -0.2,0.504 -0.547,0.5 -1.195,-0.016 -2.391,-0.02 -3.586,0 -0.348,0.004 -0.504,-0.125 -0.613,-0.469 -0.344,-1.074 -0.68,-2.149 -1.079,-3.207 -0.437,-1.168 -0.695,-2.41 -1.101,-3.594 -0.215,-0.625 -0.234,-1.176 -0.012,-1.805 0.36,-0.996 0.621,-2.031 0.93,-3.05 0.391,-1.289 0.789,-2.578 1.238,-4.039 0.516,2.621 0.996,5.066 1.477,7.515 0.031,-0.004 0.066,-0.012 0.101,-0.015 0.457,-3.329 0.914,-6.657 1.371,-9.981 l 4.223,0 z"
         style="fill:#9b1930;fill-opacity:1;fill-rule:nonzero;stroke:none"
         id="path70"
         inkscape:connector-curvature="0" /></g></g></svg>